<?xml version="1.0" encoding="UTF-8" standalone="no"?>
<!DOCTYPE svg PUBLIC "-//W3C//DTD SVG 1.1//EN" "http://www.w3.org/Graphics/SVG/1.1/DTD/svg11.dtd">
<svg width="100%" height="100%" viewBox="0 0 200 100" version="1.1" xmlns="http://www.w3.org/2000/svg" xmlns:xlink="http://www.w3.org/1999/xlink" xml:space="preserve" xmlns:serif="http://www.serif.com/" style="fill-rule:evenodd;clip-rule:evenodd;stroke-linejoin:round;stroke-miterlimit:1.41421;">
    <g transform="matrix(1.26663,0,0,1.26663,-16.794,-13.3154)">
        <g transform="matrix(1,0,0,1,-27.4633,21.3546)">
            <path d="M64.457,31.895L64.457,10.628L65.239,10.628L89.14,38.157L89.14,10.628L94.338,10.628L94.338,13.107L92.68,13.118L92.68,46.541L91.874,46.541L67.943,19.347L67.943,31.895L64.457,31.895Z" style="fill:white;fill-rule:nonzero;"/>
            <path d="M96.269,10.628L101.496,10.628L101.496,46.541L97.908,46.541L97.908,13.099L96.269,13.099L96.269,10.628Z" style="fill:white;fill-rule:nonzero;"/>
            <path d="M141.368,16.658L138.584,19.295C136.582,17.325 134.389,15.832 132.005,14.815C129.62,13.798 127.297,13.289 125.035,13.289C122.219,13.289 119.537,13.981 116.99,15.364C114.443,16.748 112.469,18.623 111.07,20.992C109.67,23.36 108.97,25.862 108.97,28.499C108.97,31.201 109.694,33.768 111.143,36.202C112.592,38.635 114.593,40.547 117.149,41.939C119.704,43.33 122.504,44.026 125.547,44.026C129.242,44.026 132.367,42.985 134.922,40.901C137.478,38.818 138.991,36.116 139.463,32.796L128.013,32.796L128.013,29.329L143.492,29.329C143.459,34.879 141.811,39.286 138.548,42.549C135.284,45.813 130.918,47.444 125.45,47.444C118.809,47.444 113.552,45.182 109.678,40.657C106.7,37.174 105.21,33.146 105.21,28.572C105.21,25.17 106.065,22.005 107.774,19.075C109.483,16.145 111.827,13.855 114.805,12.203C117.784,10.55 121.153,9.724 124.913,9.724C127.956,9.724 130.821,10.274 133.506,11.372C136.192,12.471 138.812,14.233 141.368,16.658Z" style="fill:white;fill-rule:nonzero;"/>
            <path d="M147.279,10.628L150.868,10.628L150.868,25.691L169.154,25.691L169.154,10.628L172.743,10.628L172.743,46.541L169.154,46.541L169.154,29.207L150.868,29.207L150.868,46.541L147.279,46.541L147.279,10.628Z" style="fill:white;fill-rule:nonzero;"/>
            <path d="M174.918,14.143L174.918,10.628L194.596,10.628L194.596,15.722L191.467,15.722L191.434,14.143L186.588,14.143L186.588,46.541L182.926,46.541L182.926,14.143L174.918,14.143Z" style="fill:white;fill-rule:nonzero;"/>
        </g>
        <g transform="matrix(0.975464,0,0,0.975464,0.120392,31.4314)">
            <path d="M17.595,0.565L21.184,0.565L21.184,22.245C21.184,24.816 21.233,26.419 21.33,27.054C21.509,28.47 21.924,29.654 22.575,30.606C23.226,31.559 24.227,32.356 25.578,32.999C26.929,33.642 28.288,33.963 29.655,33.963C30.844,33.963 31.983,33.711 33.073,33.207C34.164,32.702 35.075,32.002 35.808,31.107C36.54,30.212 37.077,29.129 37.419,27.86C37.663,26.948 37.785,25.077 37.785,22.245L37.785,0.565L41.374,6.204L41.374,22.245C41.374,25.451 41.061,28.043 40.434,30.02C39.808,31.998 38.554,33.719 36.675,35.184C34.795,36.649 32.52,37.381 29.851,37.381C26.954,37.381 24.472,36.69 22.404,35.306C20.337,33.923 18.954,32.092 18.254,29.813C17.815,28.413 17.595,25.89 17.595,22.245L17.595,0.565Z" style="fill:white;fill-rule:nonzero;"/>
        </g>
    </g>
</svg>
